<svg xmlns="http://www.w3.org/2000/svg" viewBox="0 0 24 24" width="32" height="32">
  <rect width="24" height="24" rx="5" fill="oklch(0.18 0.008 250)" />
  <path
    d="M12 20.5a4.5 4.5 0 0 0 4.5-4.5c0-2.7-2-3.2-2-5.9 0-1.6-1.3-2.7-2.5-4-.7 1.4-1.4 2.2-1.4 3.6 0 2.2-3.1 2.7-3.1 6.3a4.5 4.5 0 0 0 4.5 4.5Z"
    fill="oklch(0.55 0.13 45 / 0.5)"
  />
  <path
    d="M12 20.5a2.3 2.3 0 0 0 2.3-2.3c0-1.4-1.4-1.5-1.4-2.7l-.9-.9c-.7.9-2.3 1.5-2.3 3.6a2.3 2.3 0 0 0 2.3 2.3Z"
    fill="oklch(0.82 0.14 65)"
  />
</svg>
